# xmcd
#
# Track frame offsets:
#	150
#	16500
#	33525
#	49350
#	69450
#	86925
#	104550
#	122175
#	138750
#	160425
#	178425
#	191700
#	206775
#	227925
#	245325
#
# Disc length: 3436 seconds
#
# Revision: 1
# Processed by: cddbd v1.4PL0 Copyright (c) Steve Scherf et al.
# Submitted via: audiograbber 1.81.02
#
DISCID=e10d6a0f
DTITLE=Gunter Gabriel - Dieselknechte
DYEAR=1989
DGENRE=Country
TTITLE0=Wir sind die Fahrer
TTITLE1=Schlaf nicht ein am Lenkrad, Junge
TTITLE2=Dankwart und Leila
TTITLE3=Wer ist der Mann Hinter'm Mann, hinter'm Lenkrad
TTITLE4=Temporausch
TTITLE5=Mein alter VW
TTITLE6=Dieselknecht
TTITLE7=Deutsches Laster, gutes Laster
TTITLE8=Wenn ich nur ein Trucker wär
TTITLE9=Mama, lass' deinen Sohn nie Fernfahrer werden
TTITLE10=Ich fahre nie mehr blau
TTITLE11=Die gelben Engel vom ADAC
TTITLE12=Ich lieb' die Bullen
TTITLE13=Fahrer, du bist Deutschlands betser Mann
TTITLE14=Ich fahre mit dem Auto (Mit Tochter Lisa)
EXTD=
EXTT0=
EXTT1=
EXTT2=
EXTT3=
EXTT4=
EXTT5=
EXTT6=
EXTT7=
EXTT8=
EXTT9=
EXTT10=
EXTT11=
EXTT12=
EXTT13=
EXTT14=
PLAYORDER=
